# xmcd
#
# Track frame offsets:
#	150
#	18043
#	33895
#	51389
#	63441
#	76239
#	88099
#	100742
#	113980
#	127804
#
# Disc length: 1791 seconds
#
# Revision: 0
# Processed by: cddbd v1.5.1PL0 Copyright (c) Steve Scherf et al.
# Submitted via: dBpowerAMP V4.0
#
DISCID=7206fd0a
DTITLE=Don Williams - The Gentle Giant
DYEAR=1900
DGENRE=Country
TTITLE0=Good Ole Boys Like Me
TTITLE1=I've Been Loved By The Best
TTITLE2=I Believe In You
TTITLE3=On Her Way To Being A Women
TTITLE4=Amanda
TTITLE5=Tulsa Time
TTITLE6=There's Never Been A Time
TTITLE7=Where Do I Go From Here
TTITLE8=You're My Best Friend
TTITLE9=Lord I Hope This Day Is Good
EXTD=
EXTT0=
EXTT1=
EXTT2=
EXTT3=
EXTT4=
EXTT5=
EXTT6=
EXTT7=
EXTT8=
EXTT9=
PLAYORDER=
